<!-- Generated by IcoMoon.io -->
<svg version="1.1" xmlns="http://www.w3.org/2000/svg" width="6502" height="1024" viewBox="0 0 6502 1024">
<title></title>
<g id="icomoon-ignore">
</g>
<path d="M529.101 567.055h-358.462v338.816h-170.638v-803.471h580.664v140.365h-410.026v182.716h358.462v141.574z"></path>
<path d="M875.013 789.704c96.978 0 146.084-60.503 146.084-181.504 0-121.006-49.106-180.298-146.084-180.298-96.983 0-146.089 59.292-146.089 180.298 0 121.001 49.106 181.504 146.089 181.504zM875.013 921.6c-195.19 0-310.589-128.266-310.589-313.4 0-188.768 119.081-313.402 310.589-313.402 189.051 0 306.903 123.424 306.903 313.402 0 188.764-119.081 313.4-306.903 313.4z"></path>
<path d="M1622.707 690.483h160.819c-17.188 137.943-131.359 231.117-277.443 231.117-164.5 0-277.443-107.694-277.443-320.66 0-212.969 112.942-306.142 282.353-306.142 157.133 0 263.936 88.333 273.756 228.697h-160.814c-8.596-61.711-54.016-98.013-114.171-98.013-67.517 0-122.762 42.352-122.762 171.828s55.245 192.394 117.852 192.394 111.713-35.087 117.852-99.22z"></path>
<path d="M2374.554 905.871h-150.999v-83.497c-41.738 67.763-104.346 99.226-187.822 99.226-120.305 0-205.015-88.335-205.015-219.018v-392.054h159.59v367.852c0 75.023 34.376 111.324 101.893 111.324 81.024 0 123.991-56.873 123.991-135.521v-343.655h158.362v595.344z"></path>
<path d="M2961.352 490.824h-153.452c-8.591-58.082-40.509-78.653-112.937-78.653-60.155 0-94.531 14.521-94.531 49.612s33.147 49.612 98.212 67.763c68.746 19.359 133.811 32.671 180.46 50.821 63.836 25.411 99.436 66.555 99.436 143.995 0 123.423-92.068 197.238-263.936 197.238-185.37 0-288.492-85.914-290.944-206.92h164.5c0 55.665 47.877 88.335 125.215 88.335 56.474 0 106.803-16.942 106.803-61.711 0-42.353-45.42-55.665-96.983-67.763-101.893-24.202-158.362-41.139-201.329-67.763-56.468-35.092-76.109-81.070-76.109-134.314 0-100.433 69.97-176.666 254.116-176.666 174.321 0 252.887 67.762 261.478 196.027z"></path>
<path d="M3190.523 905.871h-170.634v-163.359h170.634v163.359z"></path>
<path d="M3777.966 567.055h-358.461v338.816h-170.639v-803.471h580.659v140.365h-410.020v182.716h358.461v141.574z"></path>
<path d="M4007.962 905.871h-159.59v-595.344h149.77v71.393c52.787-79.863 114.171-87.123 179.231-87.123h20.869v160.935c-14.73-2.42-29.46-3.63-44.191-3.63-98.212 0-146.089 48.402-146.089 143.993v309.775z"></path>
<path d="M4578.652 679.593l1.229-65.347c-15.959 15.734-44.196 24.202-103.122 35.092-90.844 16.942-120.305 42.353-120.305 93.174 0 44.774 27.003 66.555 77.338 66.555 82.248 0 143.631-59.295 144.86-129.475zM4739.466 905.871h-148.541c-4.91-14.52-8.591-35.092-9.82-53.243-38.057 41.139-101.893 68.972-182.912 68.972-137.492 0-201.329-66.555-201.329-163.354 0-171.827 116.623-191.191 277.437-212.972 79.795-10.89 101.893-26.619 101.893-67.761 0-38.722-39.281-61.712-101.893-61.712-72.428 0-101.888 35.091-109.256 88.333h-148.541c2.458-123.424 71.204-209.337 265.165-209.337 191.508 0 257.797 84.703 257.797 234.749v376.325z"></path>
<path d="M5674.086 905.871h-155.904v-360.596c0-71.391-38.042-122.213-94.515-122.213-58.931 0-101.888 54.452-101.888 127.057v355.753h-159.59v-358.175c0-95.594-25.805-119.795-95.77-119.795-63.836 0-96.983 38.722-96.983 116.165v361.805h-159.59v-595.344h149.77v87.123c40.509-78.653 96.978-102.854 176.768-102.854 82.278 0 121.549 25.411 168.192 94.383 33.126-65.342 87.142-94.383 163.277-94.383 121.549 0 206.234 87.123 206.234 198.447v412.627z"></path>
<path d="M5886.362 550.118h246.733c-2.458-88.335-61.389-130.687-124.006-130.687-63.795 0-116.582 48.402-122.726 130.687zM6297.6 649.339h-416.154c4.915 89.544 56.474 147.625 135.014 147.625 51.558 0 96.973-25.411 108.032-66.55h164.506c-36.813 122.214-136.243 191.186-265.165 191.186-201.318 0-301.978-108.902-301.978-324.291 0-183.928 106.803-302.512 292.147-302.512 185.395 0 283.597 118.584 283.597 354.542z"></path>
</svg>
